# xmcd CD database file
#
# Track frame offsets:
#	150
#	22562
#	30915
#	49365
#	62100
#	67462
#	80695
#	86322
#	98355
#	112890
#	118985
#	127432
#	144590
#	161695
#	178237
#	194822
#	204140
#	224727
#	231677
#	254227
#
# Disc length: 3578 seconds
#
# Revision: 0
# Processed by: cddbd v1.4PL0 Copyright (c) Steve Scherf et al.
# Submitted via: CDex 1.50Beta5
#
DISCID=380df814
DTITLE=Adonia - Musical Maria
DYEAR=1900
DGENRE=New Age
TTITLE0=Maria
TTITLE1=Gloria
TTITLE2=Uf dr Flucht
TTITLE3=Du hesch mi treit
TTITLE4=Du hesch mi treit (Reprise)
TTITLE5=Wo isch Jesus?
TTITLE6=Wüssed ihr nid?
TTITLE7=Für mi elei
TTITLE8=Er het ihn tauft
TTITLE9=Tanzmusik 1
TTITLE10=Tanzmusik 2
TTITLE11=Tüend, was er seit!
TTITLE12=En Profet giltet nüt i sim Vaterland
TTITLE13=Er cha Wunder tue
TTITLE14=Wär isch min Brüeder?
TTITLE15=Für mi elei (Reprise)
TTITLE16=Mir bringe dir e Nachricht
TTITLE17=Du hesch mi treit (Reprise)
TTITLE18=Dur dis Stärbe
TTITLE19=Er läbt
EXTD=
EXTT0=
EXTT1=
EXTT2=
EXTT3=
EXTT4=
EXTT5=
EXTT6=
EXTT7=
EXTT8=
EXTT9=
EXTT10=
EXTT11=
EXTT12=
EXTT13=
EXTT14=
EXTT15=
EXTT16=
EXTT17=
EXTT18=
EXTT19=
PLAYORDER=
